# xmcd
#
# Track frame offsets:
#	150
#	14050
#	27550
#	44750
#	60375
#	75525
#	99525
#	115725
#	133425
#	146200
#	162125
#	175100
#	193200
#	203875
#	220150
#
# Disc length: 3177 seconds
#
# Revision: 1
# Processed by: cddbd v1.5.2PL0 Copyright (c) Steve Scherf et al.
# Submitted via: audiograbber 1.83.01
#
DISCID=e30c670f
DTITLE=Brian Gladstone - Back To The Dirt Brian Gladstone
DYEAR=1999
DGENRE=Country
TTITLE0=Who Killed Betty Two Shoes
TTITLE1=Car Song
TTITLE2=Chrildren Sleep In Snow
TTITLE3=The Black Bearded Wonder
TTITLE4=Don Valley Parway Blues
TTITLE5=Caren 42
TTITLE6=Icy Northern Town
TTITLE7=Chrildren Of The Sun
TTITLE8=Cyberbabe
TTITLE9=Rosenbottom
TTITLE10=Tripping Around
TTITLE11=Lengthy Diatribe
TTITLE12=You Know How
TTITLE13=The Blackberded Wonder
TTITLE14=The Blackberded Wonder
EXTD=
EXTT0=
EXTT1=
EXTT2=
EXTT3=
EXTT4=
EXTT5=
EXTT6=
EXTT7=
EXTT8=
EXTT9=
EXTT10=
EXTT11=
EXTT12=
EXTT13=
EXTT14=
PLAYORDER=
